<?xml version="1.0" encoding="UTF-8" standalone="no"?>
<!-- Created with Inkscape (http://www.inkscape.org/) -->

<svg
   xmlns:dc="http://purl.org/dc/elements/1.1/"
   xmlns:cc="http://creativecommons.org/ns#"
   xmlns:rdf="http://www.w3.org/1999/02/22-rdf-syntax-ns#"
   xmlns:svg="http://www.w3.org/2000/svg"
   xmlns="http://www.w3.org/2000/svg"
   xmlns:sodipodi="http://sodipodi.sourceforge.net/DTD/sodipodi-0.dtd"
   xmlns:inkscape="http://www.inkscape.org/namespaces/inkscape"
   id="svg21017"
   version="1.1"
   inkscape:version="0.91 r13725"
   xml:space="preserve"
   width="1000"
   height="1000"
   viewBox="0 0 1000 1000"
   sodipodi:docname="image.svg"><metadata
     id="metadata21023"><rdf:RDF><cc:Work
         rdf:about=""><dc:format>image/svg+xml</dc:format><dc:type
           rdf:resource="http://purl.org/dc/dcmitype/StillImage" /><dc:title></dc:title></cc:Work></rdf:RDF></metadata><defs
     id="defs21021"><clipPath
       clipPathUnits="userSpaceOnUse"
       id="clipPath21033"><path
         d="M 0,800 800,800 800,0 0,0 0,800 Z"
         id="path21035"
         inkscape:connector-curvature="0" /></clipPath></defs><sodipodi:namedview
     pagecolor="#ffffff"
     bordercolor="#666666"
     borderopacity="1"
     objecttolerance="10"
     gridtolerance="10"
     guidetolerance="10"
     inkscape:pageopacity="0"
     inkscape:pageshadow="2"
     inkscape:window-width="1536"
     inkscape:window-height="801"
     id="namedview21019"
     showgrid="false"
     inkscape:zoom="0.472"
     inkscape:cx="1097.7337"
     inkscape:cy="476.41335"
     inkscape:window-x="-8"
     inkscape:window-y="-8"
     inkscape:window-maximized="1"
     inkscape:current-layer="g21025" /><g
     id="g21025"
     inkscape:groupmode="layer"
     inkscape:label="14029-NPB48B"
     transform="matrix(1.25,0,0,-1.25,0,1000)"><path
       d="M 0,0 800,0 800,800 0,800 0,0 Z"
       style="fill:#ffffff;fill-opacity:1;fill-rule:nonzero;stroke:none"
       id="path21027"
       inkscape:connector-curvature="0" /><g
       id="g21029"><g
         id="g21031"
         clip-path="url(#clipPath21033)"><g
           id="g21037"
           transform="translate(283.394,25.1367)"><path
             d="m 0,0 c 0,-0.701 0.108,-1.302 0.326,-1.793 0.216,-0.5 0.52,-0.868 0.897,-1.114 0.383,-0.253 0.795,-0.384 1.244,-0.384 0.455,0 0.875,0.123 1.251,0.361 0.376,0.233 0.673,0.601 0.897,1.093 0.232,0.492 0.34,1.107 0.34,1.837 0,0.687 -0.108,1.281 -0.34,1.78 C 4.391,2.279 4.087,2.655 3.704,2.923 3.32,3.184 2.901,3.313 2.445,3.313 1.975,3.313 1.548,3.176 1.179,2.908 0.803,2.641 0.514,2.258 0.304,1.751 0.101,1.252 0,0.666 0,0 m 5.1,-3.812 0,0.261 C 4.752,-3.949 4.405,-4.274 4.065,-4.527 3.733,-4.773 3.364,-4.969 2.966,-5.092 2.568,-5.229 2.141,-5.287 1.671,-5.287 c -0.622,0 -1.193,0.13 -1.729,0.391 -0.528,0.259 -0.984,0.636 -1.367,1.127 -0.391,0.486 -0.68,1.057 -0.883,1.715 -0.195,0.658 -0.296,1.374 -0.296,2.141 0,1.621 0.397,2.88 1.186,3.791 C -0.629,4.782 0.413,5.23 1.707,5.23 2.452,5.23 3.082,5.107 3.595,4.848 4.109,4.594 4.608,4.196 5.1,3.668 l 0,3.827 c 0,0.535 0.101,0.933 0.318,1.208 0.21,0.268 0.514,0.404 0.904,0.404 0.391,0 0.695,-0.122 0.912,-0.376 0.21,-0.252 0.318,-0.614 0.318,-1.106 l 0,-11.437 c 0,-0.492 -0.115,-0.861 -0.347,-1.106 -0.232,-0.246 -0.521,-0.369 -0.883,-0.369 -0.354,0 -0.643,0.123 -0.875,0.383 C 5.215,-4.65 5.1,-4.282 5.1,-3.812"
             style="fill:#e2466b;fill-opacity:1;fill-rule:nonzero;stroke:none"
             id="path21039"
             inkscape:connector-curvature="0" /></g><g
           id="g21041"
           transform="translate(294.8525,25.9551)"><path
             d="M 0,0 4.702,0 C 4.644,0.882 4.398,1.548 3.986,1.989 3.566,2.43 3.023,2.647 2.351,2.647 1.7,2.647 1.172,2.423 0.752,1.981 0.34,1.533 0.094,0.875 0,0 m 5.071,-1.477 -5.071,0 c 0.007,-0.586 0.123,-1.106 0.361,-1.554 0.225,-0.448 0.536,-0.789 0.919,-1.021 0.384,-0.223 0.803,-0.34 1.266,-0.34 0.311,0 0.594,0.037 0.854,0.109 0.253,0.072 0.506,0.188 0.745,0.347 0.239,0.153 0.463,0.319 0.666,0.493 0.202,0.18 0.462,0.426 0.788,0.722 0.13,0.117 0.318,0.174 0.571,0.174 0.261,0 0.478,-0.072 0.644,-0.217 C 6.974,-2.916 7.06,-3.118 7.06,-3.386 7.06,-3.617 6.966,-3.893 6.785,-4.203 6.597,-4.521 6.322,-4.818 5.953,-5.107 5.584,-5.396 5.114,-5.636 4.557,-5.823 3.993,-6.012 3.349,-6.105 2.626,-6.105 c -1.664,0 -2.966,0.469 -3.885,1.418 -0.926,0.954 -1.388,2.242 -1.388,3.869 0,0.767 0.108,1.476 0.339,2.134 0.232,0.651 0.565,1.215 0.998,1.686 0.435,0.463 0.977,0.824 1.614,1.077 0.644,0.246 1.352,0.376 2.127,0.376 1.012,0 1.881,-0.217 2.611,-0.643 C 5.766,3.385 6.308,2.828 6.669,2.155 7.031,1.476 7.212,0.788 7.212,0.086 7.212,-0.572 7.024,-0.991 6.648,-1.187 6.279,-1.375 5.751,-1.477 5.071,-1.477"
             style="fill:#e2466b;fill-opacity:1;fill-rule:nonzero;stroke:none"
             id="path21043"
             inkscape:connector-curvature="0" /></g><g
           id="g21045"
           transform="translate(311.7363,23.2344)"><path
             d="m 0,0 c 0,-0.709 -0.167,-1.323 -0.521,-1.837 -0.347,-0.507 -0.861,-0.897 -1.541,-1.157 -0.68,-0.261 -1.504,-0.391 -2.481,-0.391 -0.933,0 -1.728,0.137 -2.394,0.427 -0.666,0.282 -1.158,0.637 -1.476,1.063 -0.311,0.434 -0.478,0.861 -0.478,1.288 0,0.289 0.109,0.528 0.312,0.73 0.202,0.203 0.455,0.304 0.767,0.304 0.274,0 0.484,-0.065 0.629,-0.196 0.144,-0.136 0.282,-0.325 0.412,-0.563 0.268,-0.463 0.586,-0.804 0.962,-1.035 0.362,-0.224 0.868,-0.34 1.512,-0.34 0.521,0 0.948,0.116 1.273,0.348 0.333,0.231 0.5,0.492 0.5,0.796 0,0.455 -0.167,0.781 -0.514,0.99 -0.348,0.21 -0.912,0.413 -1.708,0.6 -0.889,0.225 -1.62,0.456 -2.177,0.702 -0.564,0.239 -1.013,0.564 -1.346,0.962 -0.332,0.398 -0.505,0.89 -0.505,1.469 0,0.521 0.158,1.013 0.469,1.476 0.312,0.463 0.767,0.832 1.375,1.106 0.6,0.276 1.331,0.412 2.184,0.412 0.673,0 1.274,-0.072 1.809,-0.209 0.536,-0.137 0.984,-0.326 1.338,-0.564 0.362,-0.232 0.637,-0.492 0.818,-0.775 0.188,-0.282 0.282,-0.564 0.282,-0.838 0,-0.297 -0.102,-0.536 -0.297,-0.731 -0.202,-0.188 -0.484,-0.282 -0.853,-0.282 -0.268,0 -0.492,0.072 -0.68,0.231 C -2.51,4.131 -2.727,4.362 -2.966,4.666 -3.161,4.92 -3.393,5.122 -3.66,5.273 -3.928,5.426 -4.29,5.498 -4.746,5.498 -5.216,5.498 -5.599,5.404 -5.91,5.201 -6.221,5.006 -6.38,4.753 -6.38,4.456 -6.38,4.182 -6.265,3.965 -6.033,3.791 -5.809,3.61 -5.505,3.465 -5.114,3.357 -4.731,3.241 -4.196,3.104 -3.516,2.938 -2.713,2.742 -2.062,2.511 -1.548,2.235 -1.042,1.961 -0.651,1.643 -0.391,1.273 -0.123,0.897 0,0.478 0,0"
             style="fill:#e2466b;fill-opacity:1;fill-rule:nonzero;stroke:none"
             id="path21047"
             inkscape:connector-curvature="0" /></g><g
           id="g21049"
           transform="translate(315.6714,28.9209)"><path
             d="m 0,0 0,-7.495 c 0,-0.521 -0.123,-0.918 -0.369,-1.179 -0.246,-0.267 -0.557,-0.397 -0.94,-0.397 -0.384,0 -0.688,0.13 -0.926,0.404 -0.239,0.275 -0.354,0.666 -0.354,1.172 l 0,7.415 c 0,0.514 0.115,0.897 0.354,1.157 0.238,0.261 0.542,0.391 0.926,0.391 0.383,0 0.694,-0.13 0.94,-0.391 C -0.123,0.817 0,0.455 0,0 m -1.28,2.676 c -0.362,0 -0.673,0.108 -0.926,0.333 -0.26,0.217 -0.383,0.535 -0.383,0.94 0,0.363 0.13,0.666 0.39,0.905 0.261,0.239 0.572,0.354 0.919,0.354 0.332,0 0.629,-0.102 0.889,-0.318 C -0.13,4.673 0,4.361 0,3.949 0,3.544 -0.123,3.233 -0.376,3.009 -0.629,2.784 -0.933,2.676 -1.28,2.676"
             style="fill:#e2466b;fill-opacity:1;fill-rule:nonzero;stroke:none"
             id="path21051"
             inkscape:connector-curvature="0" /></g><g
           id="g21053"
           transform="translate(319.52,25.2021)"><path
             d="m 0,0 c 0,-1.049 0.224,-1.845 0.687,-2.38 0.456,-0.542 1.049,-0.81 1.78,-0.81 0.434,0 0.839,0.116 1.222,0.347 0.384,0.232 0.695,0.579 0.934,1.042 0.238,0.47 0.361,1.034 0.361,1.7 C 4.984,0.955 4.752,1.78 4.29,2.366 3.819,2.952 3.212,3.248 2.445,3.248 1.707,3.248 1.114,2.966 0.666,2.401 0.224,1.838 0,1.042 0,0 m 7.509,3.284 0,-7.53 c 0,-0.86 -0.087,-1.599 -0.275,-2.221 C 7.053,-7.089 6.756,-7.603 6.351,-8.008 5.946,-8.413 5.418,-8.709 4.76,-8.904 4.102,-9.107 3.292,-9.201 2.315,-9.201 c -0.89,0 -1.693,0.123 -2.395,0.376 -0.701,0.246 -1.244,0.571 -1.628,0.97 -0.375,0.39 -0.563,0.795 -0.563,1.214 0,0.319 0.108,0.579 0.325,0.775 0.21,0.202 0.47,0.304 0.774,0.304 0.376,0 0.716,-0.167 0.998,-0.507 0.138,-0.166 0.282,-0.34 0.434,-0.514 C 0.405,-6.764 0.571,-6.908 0.752,-7.031 0.933,-7.154 1.15,-7.248 1.403,-7.306 1.657,-7.364 1.946,-7.4 2.279,-7.4 c 0.672,0 1.193,0.094 1.562,0.282 0.369,0.188 0.629,0.449 0.782,0.781 0.144,0.34 0.231,0.694 0.26,1.078 0.022,0.384 0.043,0.998 0.058,1.852 C 4.536,-3.964 4.08,-4.391 3.552,-4.68 3.031,-4.97 2.409,-5.121 1.686,-5.121 c -0.861,0 -1.621,0.224 -2.272,0.665 -0.651,0.449 -1.15,1.063 -1.497,1.866 -0.348,0.796 -0.521,1.715 -0.521,2.764 0,0.774 0.108,1.483 0.318,2.104 0.21,0.63 0.514,1.159 0.904,1.592 0.398,0.427 0.846,0.752 1.36,0.97 0.514,0.217 1.078,0.325 1.693,0.325 0.731,0 1.367,-0.138 1.91,-0.42 C 4.116,4.464 4.615,4.022 5.078,3.422 l 0,0.347 c 0,0.449 0.109,0.803 0.333,1.048 0.224,0.246 0.506,0.37 0.853,0.37 0.5,0 0.832,-0.166 0.999,-0.492 C 7.429,4.369 7.509,3.899 7.509,3.284"
             style="fill:#e2466b;fill-opacity:1;fill-rule:nonzero;stroke:none"
             id="path21055"
             inkscape:connector-curvature="0" /></g><g
           id="g21057"
           transform="translate(331.1519,28.957)"><path
             d="m 0,0 0,-0.318 c 0.456,0.607 0.955,1.048 1.498,1.331 0.542,0.274 1.164,0.419 1.866,0.419 0.68,0 1.295,-0.152 1.83,-0.449 0.535,-0.296 0.94,-0.715 1.208,-1.258 0.166,-0.319 0.282,-0.659 0.333,-1.028 0.051,-0.369 0.072,-0.839 0.072,-1.41 l 0,-4.818 C 6.807,-8.052 6.691,-8.449 6.453,-8.71 6.214,-8.978 5.91,-9.107 5.527,-9.107 c -0.383,0 -0.694,0.129 -0.941,0.404 -0.238,0.275 -0.361,0.666 -0.361,1.172 l 0,4.319 c 0,0.854 -0.116,1.505 -0.355,1.96 -0.239,0.449 -0.708,0.68 -1.417,0.68 C 1.99,-0.572 1.57,-0.709 1.187,-0.984 0.81,-1.259 0.528,-1.643 0.354,-2.12 0.224,-2.503 0.159,-3.227 0.159,-4.283 l 0,-3.248 c 0,-0.528 -0.123,-0.926 -0.362,-1.186 -0.245,-0.261 -0.564,-0.39 -0.947,-0.39 -0.376,0 -0.68,0.129 -0.919,0.404 -0.239,0.275 -0.361,0.666 -0.361,1.172 l 0,7.495 c 0,0.491 0.108,0.86 0.318,1.106 0.217,0.239 0.513,0.362 0.89,0.362 0.224,0 0.427,-0.051 0.615,-0.16 0.18,-0.108 0.332,-0.274 0.44,-0.484 C -0.058,0.571 0,0.311 0,0"
             style="fill:#e2466b;fill-opacity:1;fill-rule:nonzero;stroke:none"
             id="path21059"
             inkscape:connector-curvature="0" /></g><g
           id="g21061"
           transform="translate(341.8506,25.9551)"><path
             d="M 0,0 4.709,0 C 4.645,0.882 4.406,1.548 3.986,1.989 3.574,2.43 3.031,2.647 2.352,2.647 1.708,2.647 1.172,2.423 0.76,1.981 0.34,1.533 0.094,0.875 0,0 m 5.079,-1.477 -5.079,0 c 0.015,-0.586 0.13,-1.106 0.362,-1.554 0.232,-0.448 0.535,-0.789 0.919,-1.021 0.383,-0.223 0.81,-0.34 1.266,-0.34 0.31,0 0.593,0.037 0.853,0.109 0.253,0.072 0.507,0.188 0.746,0.347 0.238,0.153 0.462,0.319 0.665,0.493 0.202,0.18 0.463,0.426 0.788,0.722 0.13,0.117 0.326,0.174 0.572,0.174 0.26,0 0.477,-0.072 0.643,-0.217 0.167,-0.152 0.247,-0.354 0.247,-0.622 0,-0.231 -0.087,-0.507 -0.275,-0.817 C 6.605,-4.521 6.323,-4.818 5.954,-5.107 5.585,-5.396 5.115,-5.636 4.558,-5.823 4,-6.012 3.35,-6.105 2.626,-6.105 c -1.664,0 -2.959,0.469 -3.884,1.418 -0.927,0.954 -1.389,2.242 -1.389,3.869 0,0.767 0.115,1.476 0.34,2.134 0.231,0.651 0.564,1.215 0.998,1.686 0.441,0.463 0.976,0.824 1.621,1.077 0.636,0.246 1.345,0.376 2.126,0.376 1.013,0 1.881,-0.217 2.604,-0.643 C 5.766,3.385 6.308,2.828 6.67,2.155 7.032,1.476 7.212,0.788 7.212,0.086 7.212,-0.572 7.024,-0.991 6.655,-1.187 6.279,-1.375 5.751,-1.477 5.079,-1.477"
             style="fill:#e2466b;fill-opacity:1;fill-rule:nonzero;stroke:none"
             id="path21063"
             inkscape:connector-curvature="0" /></g><g
           id="g21065"
           transform="translate(352.3979,25.1367)"><path
             d="m 0,0 c 0,-0.701 0.108,-1.302 0.326,-1.793 0.216,-0.5 0.52,-0.868 0.896,-1.114 0.384,-0.253 0.796,-0.384 1.245,-0.384 0.455,0 0.875,0.123 1.251,0.361 0.376,0.233 0.68,0.601 0.905,1.093 C 4.847,-1.345 4.955,-0.73 4.955,0 4.955,0.687 4.847,1.281 4.623,1.78 4.398,2.279 4.087,2.655 3.711,2.923 3.328,3.184 2.908,3.313 2.452,3.313 1.975,3.313 1.548,3.176 1.179,2.908 0.803,2.641 0.514,2.258 0.311,1.751 0.101,1.252 0,0.666 0,0 m 5.1,-3.812 0,0.261 C 4.746,-3.949 4.405,-4.274 4.065,-4.527 3.725,-4.773 3.364,-4.969 2.966,-5.092 2.575,-5.229 2.141,-5.287 1.671,-5.287 c -0.622,0 -1.194,0.13 -1.722,0.391 -0.528,0.259 -0.991,0.636 -1.374,1.127 -0.384,0.486 -0.68,1.057 -0.875,1.715 -0.203,0.658 -0.304,1.374 -0.304,2.141 0,1.621 0.397,2.88 1.186,3.791 C -0.629,4.782 0.419,5.23 1.707,5.23 2.459,5.23 3.089,5.107 3.603,4.848 4.109,4.594 4.615,4.196 5.1,3.668 l 0,3.827 c 0,0.535 0.108,0.933 0.318,1.208 0.21,0.268 0.514,0.404 0.904,0.404 0.398,0 0.695,-0.122 0.912,-0.376 0.21,-0.252 0.318,-0.614 0.318,-1.106 l 0,-11.437 C 7.552,-4.304 7.436,-4.673 7.205,-4.918 6.98,-5.164 6.684,-5.287 6.322,-5.287 5.968,-5.287 5.678,-5.164 5.447,-4.904 5.215,-4.65 5.1,-4.282 5.1,-3.812"
             style="fill:#e2466b;fill-opacity:1;fill-rule:nonzero;stroke:none"
             id="path21067"
             inkscape:connector-curvature="0" /></g><g
           id="g21069"
           transform="translate(368.2183,25.0576)"><path
             d="m 0,0 c 0,-1.027 0.239,-1.823 0.709,-2.373 0.47,-0.557 1.085,-0.839 1.859,-0.839 0.651,0 1.208,0.289 1.685,0.854 0.471,0.564 0.702,1.381 0.702,2.437 0,0.681 -0.094,1.274 -0.289,1.766 C 4.471,2.337 4.188,2.72 3.827,2.987 3.465,3.255 3.045,3.393 2.568,3.393 2.069,3.393 1.627,3.255 1.244,2.987 0.861,2.72 0.557,2.329 0.333,1.823 0.108,1.31 0,0.702 0,0 m -0.123,7.704 0,-3.957 C 0.362,4.254 0.861,4.645 1.367,4.912 1.874,5.18 2.503,5.31 3.248,5.31 4.109,5.31 4.861,5.107 5.512,4.702 6.164,4.29 6.669,3.696 7.024,2.923 7.378,2.148 7.56,1.229 7.56,0.166 7.56,-0.622 7.458,-1.338 7.263,-1.996 7.06,-2.655 6.771,-3.219 6.395,-3.704 6.011,-4.181 5.556,-4.558 5.013,-4.817 4.471,-5.078 3.87,-5.208 3.219,-5.208 c -0.398,0 -0.774,0.043 -1.121,0.137 -0.354,0.094 -0.651,0.224 -0.897,0.377 -0.253,0.159 -0.463,0.318 -0.637,0.476 -0.173,0.167 -0.405,0.413 -0.687,0.746 l 0,-0.26 c 0,-0.486 -0.116,-0.854 -0.355,-1.107 -0.231,-0.246 -0.527,-0.369 -0.889,-0.369 -0.369,0 -0.666,0.123 -0.876,0.369 -0.224,0.253 -0.332,0.621 -0.332,1.107 l 0,11.321 c 0,0.527 0.108,0.926 0.318,1.193 0.217,0.268 0.514,0.405 0.89,0.405 0.398,0 0.709,-0.13 0.918,-0.383 0.218,-0.261 0.326,-0.622 0.326,-1.1"
             style="fill:#e2466b;fill-opacity:1;fill-rule:nonzero;stroke:none"
             id="path21071"
             inkscape:connector-curvature="0" /></g><g
           id="g21073"
           transform="translate(379.1416,19.5234)"><path
             d="m 0,0 0.238,0.579 -3.197,8.037 c -0.188,0.463 -0.289,0.796 -0.289,1.005 0,0.225 0.058,0.427 0.166,0.615 0.116,0.196 0.275,0.348 0.471,0.455 0.202,0.117 0.412,0.174 0.629,0.174 0.369,0 0.651,-0.115 0.839,-0.354 0.188,-0.239 0.362,-0.578 0.506,-1.02 L 1.555,3.104 3.639,9.043 c 0.166,0.477 0.31,0.853 0.448,1.128 0.13,0.275 0.267,0.456 0.419,0.55 0.145,0.093 0.362,0.144 0.63,0.144 0.195,0 0.384,-0.051 0.564,-0.159 C 5.881,10.605 6.019,10.461 6.12,10.287 6.221,10.105 6.271,9.925 6.271,9.723 6.243,9.607 6.199,9.434 6.142,9.209 6.083,8.992 6.019,8.768 5.939,8.536 L 2.553,-0.311 C 2.264,-1.092 1.975,-1.699 1.7,-2.148 1.418,-2.59 1.049,-2.93 0.593,-3.168 0.13,-3.406 -0.485,-3.522 -1.266,-3.522 c -0.759,0 -1.331,0.079 -1.707,0.246 -0.383,0.166 -0.572,0.463 -0.572,0.904 0,0.296 0.087,0.528 0.268,0.686 0.188,0.16 0.448,0.247 0.803,0.247 0.144,0 0.275,-0.022 0.412,-0.065 0.166,-0.036 0.304,-0.051 0.427,-0.051 0.297,0 0.528,0.043 0.701,0.13 0.174,0.087 0.326,0.239 0.464,0.463 C -0.333,-0.745 -0.181,-0.427 0,0"
             style="fill:#e2466b;fill-opacity:1;fill-rule:nonzero;stroke:none"
             id="path21075"
             inkscape:connector-curvature="0" /></g><g
           id="g21077"
           transform="translate(416.707,30.165)"><path
             d="m 0,0 0.615,0 0,0.781 c 0,0.81 0.101,1.454 0.311,1.931 0.195,0.485 0.55,0.832 1.041,1.05 0.492,0.217 1.165,0.325 2.019,0.325 1.519,0 2.271,-0.369 2.271,-1.114 C 6.257,2.734 6.178,2.524 6.019,2.358 5.866,2.185 5.671,2.104 5.461,2.104 5.36,2.104 5.18,2.119 4.934,2.163 4.694,2.191 4.478,2.221 4.312,2.221 3.841,2.221 3.545,2.076 3.407,1.801 3.277,1.526 3.205,1.136 3.205,0.614 L 3.205,0 3.841,0 c 0.991,0 1.483,-0.297 1.483,-0.897 0,-0.42 -0.131,-0.688 -0.39,-0.803 -0.261,-0.115 -0.63,-0.174 -1.093,-0.174 l -0.636,0 0,-6.865 c 0,-0.513 -0.116,-0.904 -0.362,-1.172 -0.246,-0.275 -0.558,-0.404 -0.948,-0.404 -0.369,0 -0.666,0.129 -0.918,0.404 -0.239,0.268 -0.362,0.659 -0.362,1.172 l 0,6.865 -0.717,0 c -0.382,0 -0.679,0.087 -0.889,0.268 -0.21,0.167 -0.319,0.398 -0.319,0.672 C -1.31,-0.312 -0.868,0 0,0"
             style="fill:#e2466b;fill-opacity:1;fill-rule:nonzero;stroke:none"
             id="path21079"
             inkscape:connector-curvature="0" /></g><g
           id="g21081"
           transform="translate(425.1924,23.5889)"><path
             d="m 0,0 0,-2.163 c 0,-0.527 -0.13,-0.926 -0.376,-1.186 -0.246,-0.26 -0.558,-0.39 -0.934,-0.39 -0.382,0 -0.687,0.13 -0.925,0.397 -0.239,0.268 -0.362,0.658 -0.362,1.179 l 0,7.22 c 0,1.165 0.419,1.751 1.258,1.751 0.435,0 0.745,-0.138 0.934,-0.412 C -0.21,6.12 -0.108,5.723 -0.087,5.187 0.224,5.723 0.535,6.12 0.86,6.396 1.193,6.67 1.628,6.808 2.17,6.808 2.72,6.808 3.248,6.67 3.754,6.396 4.268,6.12 4.528,5.759 4.528,5.31 4.528,4.999 4.42,4.731 4.202,4.528 3.979,4.319 3.747,4.218 3.494,4.218 3.399,4.218 3.161,4.282 2.8,4.398 2.438,4.515 2.112,4.572 1.845,4.572 1.461,4.572 1.15,4.471 0.911,4.275 0.665,4.065 0.478,3.776 0.347,3.386 0.217,2.995 0.13,2.524 0.072,1.982 0.021,1.439 0,0.781 0,0"
             style="fill:#e2466b;fill-opacity:1;fill-rule:nonzero;stroke:none"
             id="path21083"
             inkscape:connector-curvature="0" /></g><g
           id="g21085"
           transform="translate(432.0352,25.9551)"><path
             d="M 0,0 4.709,0 C 4.645,0.89 4.405,1.555 3.993,1.989 3.574,2.43 3.031,2.647 2.352,2.647 1.707,2.647 1.172,2.43 0.76,1.981 0.348,1.533 0.087,0.875 0,0 m 5.078,-1.469 -5.078,0 c 0.015,-0.594 0.131,-1.114 0.354,-1.562 0.24,-0.448 0.543,-0.789 0.934,-1.021 0.383,-0.223 0.803,-0.332 1.266,-0.332 0.311,0 0.592,0.029 0.846,0.109 0.253,0.072 0.506,0.187 0.746,0.339 0.246,0.153 0.462,0.319 0.665,0.499 0.203,0.174 0.47,0.42 0.789,0.724 0.136,0.109 0.325,0.174 0.571,0.174 0.267,0 0.484,-0.08 0.651,-0.225 0.166,-0.144 0.239,-0.347 0.239,-0.615 0,-0.238 -0.087,-0.514 -0.268,-0.824 C 6.604,-4.521 6.33,-4.818 5.961,-5.107 5.585,-5.39 5.122,-5.636 4.564,-5.823 4.001,-6.012 3.356,-6.105 2.634,-6.105 c -1.679,0 -2.966,0.469 -3.893,1.418 -0.926,0.954 -1.388,2.242 -1.388,3.869 0,0.767 0.116,1.476 0.347,2.134 0.224,0.659 0.557,1.215 0.998,1.686 0.434,0.477 0.97,0.832 1.614,1.085 0.636,0.246 1.345,0.368 2.126,0.368 1.013,0 1.88,-0.209 2.604,-0.643 C 5.766,3.393 6.315,2.835 6.67,2.155 7.031,1.476 7.213,0.788 7.213,0.086 7.213,-0.564 7.031,-0.984 6.655,-1.18 6.279,-1.375 5.759,-1.469 5.078,-1.469"
             style="fill:#e2466b;fill-opacity:1;fill-rule:nonzero;stroke:none"
             id="path21087"
             inkscape:connector-curvature="0" /></g><g
           id="g21089"
           transform="translate(442.8281,25.9551)"><path
             d="M 0,0 4.702,0 C 4.637,0.89 4.398,1.555 3.986,1.989 3.566,2.43 3.023,2.647 2.344,2.647 1.7,2.647 1.172,2.43 0.753,1.981 0.34,1.533 0.087,0.875 0,0 m 5.071,-1.469 -5.071,0 c 0.008,-0.594 0.123,-1.114 0.354,-1.562 0.232,-0.448 0.536,-0.789 0.919,-1.021 0.383,-0.223 0.803,-0.332 1.274,-0.332 0.304,0 0.593,0.029 0.846,0.109 0.253,0.072 0.506,0.187 0.745,0.339 0.246,0.153 0.463,0.319 0.666,0.499 0.202,0.174 0.469,0.42 0.788,0.724 0.137,0.109 0.326,0.174 0.571,0.174 0.269,0 0.485,-0.08 0.651,-0.225 0.166,-0.144 0.239,-0.347 0.239,-0.615 0,-0.238 -0.086,-0.514 -0.275,-0.824 C 6.604,-4.521 6.322,-4.818 5.946,-5.107 5.577,-5.39 5.107,-5.636 4.558,-5.823 3.993,-6.012 3.35,-6.105 2.619,-6.105 c -1.664,0 -2.959,0.469 -3.885,1.418 -0.925,0.954 -1.388,2.242 -1.388,3.869 0,0.767 0.115,1.476 0.346,2.134 0.225,0.659 0.558,1.215 0.999,1.686 0.434,0.477 0.969,0.832 1.613,1.085 0.636,0.246 1.345,0.368 2.127,0.368 1.006,0 1.874,-0.209 2.611,-0.643 C 5.766,3.393 6.309,2.835 6.662,2.155 7.024,1.476 7.205,0.788 7.205,0.086 7.205,-0.564 7.018,-0.984 6.648,-1.18 6.271,-1.375 5.751,-1.469 5.071,-1.469"
             style="fill:#e2466b;fill-opacity:1;fill-rule:nonzero;stroke:none"
             id="path21091"
             inkscape:connector-curvature="0" /></g><g
           id="g21093"
           transform="translate(458.6631,25.166)"><path
             d="m 0,0 c 0,0.687 -0.108,1.273 -0.311,1.766 -0.21,0.491 -0.499,0.867 -0.868,1.128 -0.369,0.26 -0.781,0.397 -1.23,0.397 -0.716,0 -1.323,-0.289 -1.808,-0.846 -0.492,-0.564 -0.745,-1.396 -0.745,-2.496 0,-1.027 0.246,-1.83 0.737,-2.401 0.493,-0.579 1.085,-0.861 1.816,-0.861 0.428,0 0.832,0.124 1.194,0.376 0.368,0.247 0.665,0.623 0.882,1.122 C -0.108,-1.31 0,-0.709 0,0 m -5.078,3.77 0,-0.312 c 0.485,0.601 0.991,1.042 1.519,1.323 0.521,0.29 1.121,0.428 1.787,0.428 0.795,0 1.534,-0.21 2.199,-0.615 C 1.1,4.182 1.628,3.574 2.019,2.785 2.409,1.989 2.604,1.057 2.604,-0.029 2.604,-0.824 2.496,-1.562 2.271,-2.228 2.048,-2.9 1.729,-3.458 1.339,-3.906 0.948,-4.361 0.485,-4.709 -0.051,-4.955 c -0.542,-0.238 -1.106,-0.361 -1.721,-0.361 -0.738,0 -1.368,0.144 -1.867,0.448 -0.506,0.289 -0.983,0.73 -1.439,1.302 l 0,-3.892 c 0,-1.136 -0.419,-1.707 -1.244,-1.707 -0.492,0 -0.811,0.144 -0.977,0.434 -0.151,0.303 -0.231,0.723 -0.231,1.294 l 0,11.192 c 0,0.499 0.108,0.86 0.318,1.106 0.217,0.239 0.514,0.369 0.89,0.369 0.369,0 0.658,-0.13 0.889,-0.376 0.24,-0.253 0.355,-0.608 0.355,-1.084"
             style="fill:#e2466b;fill-opacity:1;fill-rule:nonzero;stroke:none"
             id="path21095"
             inkscape:connector-curvature="0" /></g><g
           id="g21097"
           transform="translate(465.166,28.9209)"><path
             d="m 0,0 0,-7.502 c 0,-0.514 -0.122,-0.904 -0.376,-1.172 -0.245,-0.267 -0.557,-0.397 -0.94,-0.397 -0.376,0 -0.68,0.13 -0.926,0.404 -0.232,0.275 -0.355,0.666 -0.355,1.165 l 0,7.429 c 0,0.513 0.123,0.897 0.355,1.158 0.246,0.26 0.55,0.391 0.926,0.391 0.383,0 0.695,-0.131 0.94,-0.391 C -0.122,0.824 0,0.463 0,0 m -1.287,2.684 c -0.361,0 -0.666,0.108 -0.919,0.333 -0.26,0.223 -0.391,0.527 -0.391,0.932 0,0.369 0.131,0.673 0.399,0.911 0.26,0.233 0.563,0.355 0.911,0.355 0.34,0 0.637,-0.101 0.896,-0.318 C -0.13,4.68 0,4.361 0,3.949 0,3.552 -0.13,3.24 -0.376,3.017 -0.629,2.792 -0.933,2.684 -1.287,2.684"
             style="fill:#e2466b;fill-opacity:1;fill-rule:nonzero;stroke:none"
             id="path21099"
             inkscape:connector-curvature="0" /></g><g
           id="g21101"
           transform="translate(473.5215,21.0352)"><path
             d="m 0,0 -2.278,3.762 -1.411,-1.331 0,-2.062 c 0,-0.499 -0.13,-0.882 -0.398,-1.15 -0.253,-0.275 -0.564,-0.405 -0.904,-0.405 -0.398,0 -0.716,0.13 -0.941,0.398 -0.224,0.267 -0.347,0.658 -0.347,1.179 l 0,11.06 c 0,0.572 0.116,1.014 0.333,1.318 0.224,0.303 0.55,0.448 0.955,0.448 0.397,0 0.709,-0.138 0.947,-0.412 0.239,-0.268 0.355,-0.673 0.355,-1.201 l 0,-6.293 2.916,3.059 c 0.361,0.376 0.635,0.644 0.831,0.781 0.181,0.138 0.413,0.21 0.687,0.21 C 1.07,9.361 1.338,9.253 1.556,9.05 1.766,8.848 1.881,8.587 1.881,8.276 1.881,7.9 1.526,7.387 0.825,6.757 L -0.55,5.491 2.105,1.31 C 2.301,0.999 2.445,0.768 2.532,0.608 2.619,0.441 2.662,0.282 2.662,0.146 2.662,-0.268 2.547,-0.593 2.314,-0.831 2.091,-1.07 1.794,-1.186 1.433,-1.186 c -0.312,0 -0.565,0.08 -0.731,0.253 C 0.528,-0.759 0.297,-0.448 0,0"
             style="fill:#e2466b;fill-opacity:1;fill-rule:nonzero;stroke:none"
             id="path21103"
             inkscape:connector-curvature="0" /></g><g
           id="g21105"
           transform="translate(479.1572,19.8496)"><path
             d="m 0,0 c -0.391,0 -0.724,0.123 -1.013,0.383 -0.282,0.246 -0.427,0.6 -0.427,1.063 0,0.384 0.137,0.716 0.413,0.992 0.274,0.282 0.607,0.419 1.005,0.419 0.398,0 0.738,-0.137 1.027,-0.413 C 1.28,2.17 1.425,1.83 1.425,1.446 1.425,0.99 1.28,0.637 1.005,0.383 0.716,0.123 0.383,0 0,0"
             style="fill:#e2466b;fill-opacity:1;fill-rule:nonzero;stroke:none"
             id="path21107"
             inkscape:connector-curvature="0" /></g><g
           id="g21109"
           transform="translate(492.0625,23.0615)"><path
             d="m 0,0 c 0,-0.326 -0.102,-0.673 -0.297,-1.035 -0.188,-0.376 -0.484,-0.723 -0.883,-1.056 -0.397,-0.326 -0.889,-0.6 -1.497,-0.803 -0.6,-0.203 -1.28,-0.304 -2.025,-0.304 -1.607,0 -2.858,0.47 -3.762,1.404 -0.897,0.933 -1.346,2.185 -1.346,3.754 0,1.07 0.203,2.011 0.622,2.828 0.406,0.811 0.999,1.447 1.78,1.896 0.774,0.448 1.715,0.665 2.793,0.665 0.672,0 1.287,-0.094 1.851,-0.289 0.565,-0.196 1.035,-0.456 1.425,-0.76 0.391,-0.319 0.688,-0.644 0.89,-0.998 0.21,-0.347 0.311,-0.68 0.311,-0.984 0,-0.311 -0.116,-0.571 -0.347,-0.788 -0.232,-0.21 -0.514,-0.326 -0.839,-0.326 -0.217,0 -0.399,0.058 -0.535,0.166 -0.145,0.116 -0.312,0.29 -0.485,0.543 -0.311,0.478 -0.644,0.847 -0.991,1.078 -0.348,0.246 -0.781,0.362 -1.317,0.362 -0.759,0 -1.381,-0.297 -1.852,-0.897 -0.47,-0.594 -0.701,-1.418 -0.701,-2.453 0,-0.484 0.058,-0.94 0.181,-1.345 0.115,-0.405 0.289,-0.76 0.52,-1.042 0.232,-0.289 0.499,-0.506 0.825,-0.658 0.325,-0.152 0.68,-0.225 1.064,-0.225 0.52,0 0.969,0.123 1.338,0.363 0.376,0.238 0.701,0.607 0.983,1.099 0.159,0.289 0.333,0.521 0.514,0.687 0.18,0.159 0.405,0.246 0.673,0.246 0.318,0 0.579,-0.123 0.789,-0.361 C -0.109,0.527 0,0.268 0,0"
             style="fill:#e2466b;fill-opacity:1;fill-rule:nonzero;stroke:none"
             id="path21111"
             inkscape:connector-curvature="0" /></g><g
           id="g21113"
           transform="translate(500.6484,25.1152)"><path
             d="M 0,0 C 0,1.063 -0.238,1.881 -0.701,2.475 -1.164,3.067 -1.794,3.364 -2.575,3.364 -3.081,3.364 -3.53,3.227 -3.921,2.966 -4.304,2.706 -4.601,2.315 -4.803,1.802 -5.013,1.288 -5.121,0.687 -5.121,0 c 0,-0.673 0.1,-1.266 0.304,-1.771 0.21,-0.507 0.505,-0.898 0.889,-1.166 0.383,-0.267 0.832,-0.405 1.353,-0.405 0.781,0 1.411,0.297 1.874,0.898 C -0.238,-1.858 0,-1.041 0,0 M 2.604,0 C 2.604,-0.767 2.481,-1.482 2.25,-2.134 1.997,-2.785 1.656,-3.349 1.193,-3.812 0.738,-4.282 0.195,-4.644 -0.434,-4.896 c -0.644,-0.247 -1.353,-0.37 -2.141,-0.37 -0.788,0 -1.49,0.123 -2.119,0.383 -0.622,0.246 -1.172,0.608 -1.628,1.078 -0.463,0.478 -0.811,1.034 -1.057,1.678 -0.224,0.645 -0.347,1.354 -0.347,2.127 0,0.789 0.123,1.512 0.362,2.163 0.239,0.651 0.586,1.208 1.035,1.671 0.455,0.463 0.998,0.817 1.635,1.07 0.643,0.246 1.344,0.377 2.119,0.377 0.781,0 1.497,-0.131 2.141,-0.384 C 0.203,4.645 0.745,4.283 1.208,3.82 1.664,3.342 2.012,2.785 2.25,2.148 2.481,1.498 2.604,0.789 2.604,0"
             style="fill:#e2466b;fill-opacity:1;fill-rule:nonzero;stroke:none"
             id="path21115"
             inkscape:connector-curvature="0" /></g><g
           id="g21117"
           transform="translate(513.1416,24.9277)"><path
             d="m 0,0 0,-3.443 c 0,-0.55 -0.123,-0.955 -0.369,-1.231 -0.253,-0.274 -0.571,-0.404 -0.977,-0.404 -0.39,0 -0.716,0.13 -0.955,0.404 -0.245,0.276 -0.368,0.681 -0.368,1.231 l 0,4.13 c 0,0.651 -0.022,1.158 -0.065,1.526 -0.044,0.348 -0.167,0.651 -0.363,0.883 -0.195,0.231 -0.506,0.347 -0.932,0.347 -0.847,0 -1.404,-0.29 -1.679,-0.882 C -5.968,1.989 -6.105,1.15 -6.105,0.058 l 0,-3.501 c 0,-0.543 -0.13,-0.949 -0.37,-1.223 -0.246,-0.275 -0.564,-0.412 -0.962,-0.412 -0.397,0 -0.715,0.137 -0.969,0.412 -0.253,0.274 -0.376,0.68 -0.376,1.223 l 0,7.414 c 0,0.492 0.116,0.861 0.34,1.114 0.231,0.253 0.528,0.384 0.89,0.384 0.354,0 0.651,-0.123 0.89,-0.355 0.231,-0.239 0.354,-0.571 0.354,-0.991 l 0,-0.238 c 0.449,0.535 0.933,0.926 1.447,1.178 0.513,0.261 1.078,0.384 1.707,0.384 0.658,0 1.216,-0.131 1.678,-0.39 0.47,-0.261 0.854,-0.652 1.164,-1.172 C 0.123,4.412 0.601,4.803 1.1,5.063 1.599,5.316 2.148,5.447 2.756,5.447 3.465,5.447 4.08,5.31 4.594,5.027 5.107,4.752 5.483,4.348 5.736,3.834 5.961,3.363 6.069,2.626 6.069,1.613 l 0,-5.056 c 0,-0.55 -0.123,-0.955 -0.362,-1.231 -0.253,-0.274 -0.578,-0.404 -0.983,-0.404 -0.391,0 -0.709,0.137 -0.962,0.412 -0.253,0.274 -0.376,0.68 -0.376,1.223 l 0,4.361 C 3.386,1.476 3.356,1.917 3.313,2.25 3.27,2.59 3.14,2.871 2.93,3.104 2.72,3.327 2.401,3.443 1.981,3.443 1.635,3.443 1.316,3.334 1.005,3.139 0.694,2.937 0.456,2.662 0.282,2.322 0.094,1.888 0,1.113 0,0"
             style="fill:#e2466b;fill-opacity:1;fill-rule:nonzero;stroke:none"
             id="path21119"
             inkscape:connector-curvature="0" /></g><g
           id="g21121"
           transform="translate(392.4375,25.7451)"><path
             d="M 0,0 C -0.007,0.007 -0.007,0.015 -0.007,0.021 -0.007,0.015 -0.007,0.007 0,0"
             style="fill:#e2466b;fill-opacity:1;fill-rule:nonzero;stroke:none"
             id="path21123"
             inkscape:connector-curvature="0" /></g><g
           id="g21125"
           transform="translate(392.5674,24.9199)"><path
             d="M 0,0 0,0 C -0.051,0.231 -0.087,0.471 -0.116,0.702 -0.087,0.463 -0.051,0.231 0,0"
             style="fill:#e2466b;fill-opacity:1;fill-rule:nonzero;stroke:none"
             id="path21127"
             inkscape:connector-curvature="0" /></g><g
           id="g21129"
           transform="translate(393.4209,22.5117)"><path
             d="M 0,0 C 0,0.007 -0.007,0.021 -0.014,0.036 -0.007,0.021 0,0.007 0,0"
             style="fill:#e2466b;fill-opacity:1;fill-rule:nonzero;stroke:none"
             id="path21131"
             inkscape:connector-curvature="0" /></g><g
           id="g21133"
           transform="translate(393.3418,22.6709)"><path
             d="M 0,0 C -0.022,0.043 -0.044,0.087 -0.065,0.137 -0.044,0.087 -0.022,0.043 0,0"
             style="fill:#e2466b;fill-opacity:1;fill-rule:nonzero;stroke:none"
             id="path21135"
             inkscape:connector-curvature="0" /></g><g
           id="g21137"
           transform="translate(392.8062,23.9941)"><path
             d="M 0,0 C 0.13,-0.405 0.282,-0.788 0.456,-1.164 0.282,-0.781 0.13,-0.397 0,0"
             style="fill:#e2466b;fill-opacity:1;fill-rule:nonzero;stroke:none"
             id="path21139"
             inkscape:connector-curvature="0" /></g><g
           id="g21141"
           transform="translate(402.4707,35.6846)"><path
             d="M 0,0 C 0.499,0 0.875,-0.044 1.295,-0.116 L 1.418,0.65 c 0,0 -1.172,0.363 -2.713,0.232 l -0.123,0.42 c 0.478,0.101 0.84,0.528 0.84,1.034 0,0.579 -0.471,1.049 -1.057,1.049 -0.579,0 -1.056,-0.47 -1.056,-1.049 0,-0.506 0.362,-0.933 0.839,-1.034 l 0.13,-0.463 C -3.35,0.614 -4.651,-0.022 -4.651,-0.022 l 0.224,-0.709 c 0.991,0.326 1.852,0.528 2.626,0.615 C -1.035,-0.036 -0.463,0 0,0"
             style="fill:#e2466b;fill-opacity:1;fill-rule:nonzero;stroke:none"
             id="path21143"
             inkscape:connector-curvature="0" /></g><g
           id="g21145"
           transform="translate(393.4067,31.8281)"><path
             d="M 0,0 0.007,0.008 C 0.043,0.051 0.08,0.102 0.116,0.145 L -0.195,0.369 -0.68,0.73 c -0.029,-0.043 -0.796,-0.744 -1.403,-2.046 -0.029,0.036 -0.058,0.08 -0.087,0.116 -0.188,0.202 -0.442,0.304 -0.767,0.296 l -0.015,0 c -0.195,0 -0.332,0.065 -0.419,0.145 0.087,0.115 0.137,0.253 0.137,0.412 0,0.369 -0.296,0.673 -0.665,0.673 -0.369,0 -0.666,-0.304 -0.666,-0.673 0,-0.369 0.297,-0.666 0.666,-0.666 0.058,0 0.115,0.008 0.166,0.023 0.167,-0.189 0.427,-0.348 0.811,-0.34 0.195,0.007 0.339,-0.044 0.433,-0.152 0.109,-0.123 0.153,-0.297 0.159,-0.427 l 0,-0.007 c -0.441,-1.187 -0.311,-2.67 -0.311,-2.67 l 1.057,-0.043 c 0.022,0.542 0.101,1.483 0.369,2.234 C -0.687,-0.947 -0.029,-0.043 0,0"
             style="fill:#e2466b;fill-opacity:1;fill-rule:nonzero;stroke:none"
             id="path21147"
             inkscape:connector-curvature="0" /></g><g
           id="g21149"
           transform="translate(411.6719,34.8018)"><path
             d="m 0,0 c -0.369,0 -0.665,-0.304 -0.665,-0.673 0,-0.057 0.007,-0.108 0.021,-0.166 -0.188,-0.159 -0.339,-0.427 -0.339,-0.81 0,-0.196 -0.044,-0.34 -0.153,-0.434 -0.087,-0.072 -0.188,-0.116 -0.296,-0.138 -0.789,1.1 -1.757,1.773 -1.757,1.773 l -0.76,-0.811 c 0.571,-0.52 1.157,-1.179 1.728,-1.996 0.399,-0.564 0.803,-1.288 1.136,-2.012 l 1.027,0.485 c 0,0 -0.469,1.158 -1.128,2.192 0.116,0.044 0.231,0.102 0.332,0.195 0.204,0.181 0.297,0.435 0.29,0.76 0,0.202 0.072,0.347 0.152,0.442 0.115,-0.095 0.253,-0.146 0.412,-0.146 0.369,0 0.666,0.297 0.666,0.666 C 0.666,-0.304 0.369,0 0,0"
             style="fill:#e2466b;fill-opacity:1;fill-rule:nonzero;stroke:none"
             id="path21151"
             inkscape:connector-curvature="0" /></g><g
           id="g21153"
           transform="translate(409.0176,25.6006)"><path
             d="m 0,0 c -1.411,-0.687 -3.732,-1.599 -6.785,-2.026 -1.194,-0.166 -2.359,-0.224 -3.429,-0.224 -1.39,0 -2.619,0.102 -3.559,0.224 -1.079,0.13 -1.917,0.297 -2.438,0.42 0.13,-0.398 0.282,-0.782 0.455,-1.165 0.007,-0.007 0.007,-0.014 0.015,-0.022 0.021,-0.05 0.043,-0.094 0.065,-0.137 0.022,-0.044 0.043,-0.087 0.065,-0.123 0.007,-0.014 0.014,-0.029 0.014,-0.036 0.304,-0.572 0.673,-1.093 1.085,-1.549 1.44,-1.576 2.908,-1.822 2.923,-1.83 l 0.022,0 0.022,-0.007 c 0.014,-0.006 1.309,-0.426 3.291,-0.426 1.945,0 3.856,0.39 5.671,1.172 1.353,0.687 2.626,1.736 3.255,2.668 0.492,0.724 0.84,1.491 1.049,2.293 C 1.837,-0.341 1.924,0.34 1.866,1.056 1.476,0.788 0.846,0.412 0,0"
             style="fill:#e2466b;fill-opacity:1;fill-rule:nonzero;stroke:none"
             id="path21155"
             inkscape:connector-curvature="0" /></g><g
           id="g21157"
           transform="translate(397.8843,32.2266)"><path
             d="m 0,0 c 1.555,0 2.821,-1.259 2.821,-2.814 0,-1.555 -1.266,-2.821 -2.821,-2.821 -1.555,0 -2.814,1.266 -2.814,2.821 C -2.814,-1.259 -1.555,0 0,0 m 8.24,-0.072 c 0.962,0 1.751,-0.782 1.751,-1.737 0,-0.962 -0.789,-1.743 -1.751,-1.743 -0.955,0 -1.737,0.781 -1.737,1.743 0,0.955 0.782,1.737 1.737,1.737 M -4.029,-0.738 c -0.036,-0.058 -0.651,-0.926 -1.129,-2.25 -0.361,-0.998 -0.354,-2.445 -0.354,-2.459 l 0,-0.007 c 0,-0.341 0.022,-0.673 0.058,-1.006 0,-0.007 0,-0.015 0.007,-0.021 0,-0.044 0.007,-0.081 0.014,-0.123 0.029,-0.232 0.065,-0.471 0.116,-0.703 0.702,-0.18 4.883,-1.157 9.549,-0.505 2.93,0.412 5.15,1.273 6.503,1.931 1.114,0.542 1.838,1.034 2.119,1.236 -0.281,1.028 -1.041,2.641 -1.742,3.647 C 9.108,1.866 6.945,2.604 5.831,2.785 5.411,2.85 5.071,2.894 4.586,2.894 4.145,2.894 3.588,2.857 2.843,2.777 2.105,2.705 1.273,2.51 0.311,2.185 -1.034,1.729 -2.25,1.027 -3.212,0.137 L -3.248,0.102 c -0.137,-0.131 -0.434,-0.406 -0.781,-0.84"
             style="fill:#e2466b;fill-opacity:1;fill-rule:nonzero;stroke:none"
             id="path21159"
             inkscape:connector-curvature="0" /></g><g
           id="g21161"
           transform="translate(438.6836,683.1719)"><path
             d="m 0,0 c -144.374,0 -261.837,-117.459 -261.837,-261.839 0,-144.38 117.463,-261.839 261.837,-261.839 144.381,0 261.844,117.459 261.844,261.839 C 261.844,-117.459 144.381,0 0,0 m 0,-525.688 c -145.488,0 -263.848,118.363 -263.848,263.849 0,145.486 118.36,263.85 263.848,263.85 145.487,0 263.854,-118.364 263.854,-263.85 0,-145.486 -118.367,-263.849 -263.854,-263.849"
             style="fill:#e2466b;fill-opacity:1;fill-rule:nonzero;stroke:none"
             id="path21163"
             inkscape:connector-curvature="0" /></g><g
           id="g21165"
           transform="translate(420.252,662.5591)"><path
             d="m 0,0 c -149.93,0 -271.899,-121.977 -271.899,-271.897 0,-149.925 121.969,-271.897 271.899,-271.897 149.921,0 271.898,121.972 271.898,271.897 C 271.898,-121.977 149.921,0 0,0 m 0,-545.805 c -151.036,0 -273.911,122.873 -273.911,273.908 0,151.034 122.875,273.908 273.911,273.908 151.035,0 273.91,-122.874 273.91,-273.908 0,-151.035 -122.875,-273.908 -273.91,-273.908"
             style="fill:#ef4522;fill-opacity:1;fill-rule:nonzero;stroke:none"
             id="path21167"
             inkscape:connector-curvature="0" /></g><g
           id="g21169"
           transform="translate(409.1797,694.2397)"><path
             d="m 0,0 c -152.515,0 -276.594,-124.078 -276.594,-276.592 0,-152.514 124.079,-276.592 276.594,-276.592 152.512,0 276.591,124.078 276.591,276.592 C 276.591,-124.078 152.512,0 0,0 m 0,-555.195 c -153.622,0 -278.604,124.979 -278.604,278.603 0,153.624 124.982,278.603 278.604,278.603 153.622,0 278.602,-124.979 278.602,-278.603 0,-153.624 -124.98,-278.603 -278.602,-278.603"
             style="fill:#0081de;fill-opacity:1;fill-rule:nonzero;stroke:none"
             id="path21171"
             inkscape:connector-curvature="0" /></g><g
           id="g21173"
           transform="translate(374.6494,691.2178)"><path
             d="m 0,0 c -152.516,0 -276.594,-124.08 -276.594,-276.591 0,-152.513 124.078,-276.592 276.594,-276.592 152.512,0 276.594,124.079 276.594,276.592 C 276.594,-124.08 152.512,0 0,0 m 0,-555.193 c -153.626,0 -278.605,124.978 -278.605,278.602 0,153.625 124.979,278.604 278.605,278.604 153.625,0 278.604,-124.979 278.604,-278.604 0,-153.624 -124.979,-278.602 -278.604,-278.602"
             style="fill:#ffda00;fill-opacity:1;fill-rule:nonzero;stroke:none"
             id="path21175"
             inkscape:connector-curvature="0" /></g><g
           id="g21177"
           transform="translate(396.105,670.4365)"><path
             d="m 0,0 c -152.515,0 -276.594,-124.082 -276.594,-276.592 0,-152.514 124.079,-276.592 276.594,-276.592 152.511,0 276.594,124.078 276.594,276.592 C 276.594,-124.082 152.511,0 0,0 m 0,-555.198 c -153.625,0 -278.605,124.982 -278.605,278.606 0,153.621 124.98,278.603 278.605,278.603 153.625,0 278.605,-124.982 278.605,-278.603 0,-153.624 -124.98,-278.606 -278.605,-278.606"
             style="fill:#049900;fill-opacity:1;fill-rule:nonzero;stroke:none"
             id="path21179"
             inkscape:connector-curvature="0" /></g><g
           id="g21181"
           transform="translate(553.5937,632.5498)"><path
             d="m 0,0 c 0,-3.197 -2.583,-5.784 -5.78,-5.784 -3.198,0 -5.787,2.587 -5.787,5.784 0,3.197 2.589,5.783 5.787,5.783 C -2.583,5.783 0,3.197 0,0"
             style="fill:#ef4522;fill-opacity:1;fill-rule:nonzero;stroke:none"
             id="path21183"
             inkscape:connector-curvature="0" /></g><g
           id="g21185"
           transform="translate(588.4609,599.6934)"><path
             d="m 0,0 c 0,-3.197 -2.587,-5.783 -5.787,-5.783 -3.198,0 -5.78,2.586 -5.78,5.783 0,3.198 2.582,5.784 5.78,5.784 C -2.587,5.784 0,3.198 0,0"
             style="fill:#049900;fill-opacity:1;fill-rule:nonzero;stroke:none"
             id="path21187"
             inkscape:connector-curvature="0" /></g><g
           id="g21189"
           transform="translate(540.0156,666.0713)"><path
             d="m 0,0 c 0,-3.201 -2.583,-5.784 -5.78,-5.784 -3.201,0 -5.787,2.583 -5.787,5.784 0,3.197 2.586,5.783 5.787,5.783 C -2.583,5.783 0,3.197 0,0"
             style="fill:#0081de;fill-opacity:1;fill-rule:nonzero;stroke:none"
             id="path21191"
             inkscape:connector-curvature="0" /></g><g
           id="g21193"
           transform="translate(446.3076,684.1738)"><path
             d="m 0,0 c 0,-3.197 -2.582,-5.784 -5.779,-5.784 -3.199,0 -5.787,2.587 -5.787,5.784 0,3.197 2.588,5.783 5.787,5.783 C -2.582,5.783 0,3.197 0,0"
             style="fill:#ffda00;fill-opacity:1;fill-rule:nonzero;stroke:none"
             id="path21195"
             inkscape:connector-curvature="0" /></g><g
           id="g21197"
           transform="translate(349.9238,666.7402)"><path
             d="m 0,0 c 0,-3.197 -2.583,-5.78 -5.783,-5.78 -3.198,0 -5.784,2.583 -5.784,5.78 0,3.201 2.586,5.783 5.784,5.783 C -2.583,5.783 0,3.201 0,0"
             style="fill:#e2466b;fill-opacity:1;fill-rule:nonzero;stroke:none"
             id="path21199"
             inkscape:connector-curvature="0" /></g><g
           id="g21201"
           transform="translate(254.0391,602.374)"><path
             d="m 0,0 c 0,-3.201 -2.586,-5.784 -5.783,-5.784 -3.201,0 -5.784,2.583 -5.784,5.784 0,3.197 2.583,5.779 5.784,5.779 C -2.586,5.779 0,3.197 0,0"
             style="fill:#ef4522;fill-opacity:1;fill-rule:nonzero;stroke:none"
             id="path21203"
             inkscape:connector-curvature="0" /></g><g
           id="g21205"
           transform="translate(165.5293,541.353)"><path
             d="m 0,0 c 0,-3.197 -2.586,-5.784 -5.784,-5.784 -3.197,0 -5.779,2.587 -5.779,5.784 0,3.197 2.582,5.783 5.779,5.783 C -2.586,5.783 0,3.197 0,0"
             style="fill:#0081de;fill-opacity:1;fill-rule:nonzero;stroke:none"
             id="path21207"
             inkscape:connector-curvature="0" /></g><g
           id="g21209"
           transform="translate(187.3213,260.0703)"><path
             d="m 0,0 c 0,-3.198 -2.586,-5.784 -5.784,-5.784 -3.197,0 -5.783,2.586 -5.783,5.784 0,3.197 2.586,5.783 5.783,5.783 C -2.586,5.783 0,3.197 0,0"
             style="fill:#0081de;fill-opacity:1;fill-rule:nonzero;stroke:none"
             id="path21211"
             inkscape:connector-curvature="0" /></g><g
           id="g21213"
           transform="translate(199.3906,204.7529)"><path
             d="m 0,0 c 0,-3.197 -2.586,-5.783 -5.783,-5.783 -3.197,0 -5.784,2.586 -5.784,5.783 0,3.197 2.587,5.783 5.784,5.783 C -2.586,5.783 0,3.197 0,0"
             style="fill:#049900;fill-opacity:1;fill-rule:nonzero;stroke:none"
             id="path21215"
             inkscape:connector-curvature="0" /></g><g
           id="g21217"
           transform="translate(298.6284,149.4395)"><path
             d="m 0,0 c 0,-3.197 -2.583,-5.783 -5.783,-5.783 -3.198,0 -5.784,2.586 -5.784,5.783 0,3.197 2.586,5.783 5.784,5.783 C -2.583,5.783 0,3.197 0,0"
             style="fill:#ffda00;fill-opacity:1;fill-rule:nonzero;stroke:none"
             id="path21219"
             inkscape:connector-curvature="0" /></g><g
           id="g21221"
           transform="translate(426.3643,117.5889)"><path
             d="m 0,0 c 0,-3.197 -2.587,-5.783 -5.787,-5.783 -3.197,0 -5.78,2.586 -5.78,5.783 0,3.197 2.583,5.783 5.78,5.783 C -2.587,5.783 0,3.197 0,0"
             style="fill:#ef4522;fill-opacity:1;fill-rule:nonzero;stroke:none"
             id="path21223"
             inkscape:connector-curvature="0" /></g><g
           id="g21225"
           transform="translate(629.8672,235.6016)"><path
             d="m 0,0 c 0,-3.197 -2.583,-5.783 -5.78,-5.783 -3.198,0 -5.787,2.586 -5.787,5.783 0,3.197 2.589,5.783 5.787,5.783 C -2.583,5.783 0,3.197 0,0"
             style="fill:#049900;fill-opacity:1;fill-rule:nonzero;stroke:none"
             id="path21227"
             inkscape:connector-curvature="0" /></g><g
           id="g21229"
           transform="translate(694.9102,342.2129)"><path
             d="m 0,0 c 0,-3.197 -2.586,-5.783 -5.783,-5.783 -3.197,0 -5.78,2.586 -5.78,5.783 0,3.201 2.583,5.784 5.78,5.784 C -2.586,5.784 0,3.201 0,0"
             style="fill:#ef4522;fill-opacity:1;fill-rule:nonzero;stroke:none"
             id="path21231"
             inkscape:connector-curvature="0" /></g><g
           id="g21233"
           transform="translate(687.8682,469.2788)"><path
             d="m 0,0 c 0,-3.197 -2.583,-5.783 -5.78,-5.783 -3.198,0 -5.787,2.586 -5.787,5.783 0,3.197 2.589,5.784 5.787,5.784 C -2.583,5.784 0,3.197 0,0"
             style="fill:#ef4522;fill-opacity:1;fill-rule:nonzero;stroke:none"
             id="path21235"
             inkscape:connector-curvature="0" /></g><g
           id="g21237"
           transform="translate(653.6738,278.5127)"><path
             d="m 0,0 c 0,-3.197 -2.583,-5.784 -5.783,-5.784 -3.197,0 -5.784,2.587 -5.784,5.784 0,3.197 2.587,5.783 5.784,5.783 C -2.583,5.783 0,3.197 0,0"
             style="fill:#0081de;fill-opacity:1;fill-rule:nonzero;stroke:none"
             id="path21239"
             inkscape:connector-curvature="0" /></g><g
           id="g21241"
           transform="translate(586.2832,200.0615)"><path
             d="m 0,0 c 0,-3.197 -2.586,-5.783 -5.783,-5.783 -3.201,0 -5.784,2.586 -5.784,5.783 0,3.197 2.583,5.783 5.784,5.783 C -2.586,5.783 0,3.197 0,0"
             style="fill:#e2466b;fill-opacity:1;fill-rule:nonzero;stroke:none"
             id="path21243"
             inkscape:connector-curvature="0" /></g><g
           id="g21245"
           transform="translate(420.3311,139.3809)"><path
             d="m 0,0 c 0,-3.197 -2.59,-5.783 -5.787,-5.783 -3.197,0 -5.78,2.586 -5.78,5.783 0,3.197 2.583,5.783 5.78,5.783 C -2.59,5.783 0,3.197 0,0"
             style="fill:#e2466b;fill-opacity:1;fill-rule:nonzero;stroke:none"
             id="path21247"
             inkscape:connector-curvature="0" /></g><g
           id="g21249"
           transform="translate(503.1406,165.8672)"><path
             d="m 0,0 c 0,-3.201 -2.586,-5.783 -5.783,-5.783 -3.197,0 -5.783,2.582 -5.783,5.783 0,3.197 2.586,5.783 5.783,5.783 C -2.586,5.783 0,3.197 0,0"
             style="fill:#ffda00;fill-opacity:1;fill-rule:nonzero;stroke:none"
             id="path21251"
             inkscape:connector-curvature="0" /></g><g
           id="g21253"
           transform="translate(371.5459,692.0513)"><path
             d="m 0,0 c 0,-3.197 -2.583,-5.783 -5.78,-5.783 -3.198,0 -5.787,2.586 -5.787,5.783 0,3.197 2.589,5.784 5.787,5.784 C -2.583,5.784 0,3.197 0,0"
             style="fill:#ffda00;fill-opacity:1;fill-rule:nonzero;stroke:none"
             id="path21255"
             inkscape:connector-curvature="0" /></g></g></g><text
       transform="scale(1.0000032,-0.99999681)"
       style="font-variant:normal;font-weight:800;font-stretch:normal;font-size:47.0447998px;font-family:'Open Sans Extrabold';-inkscape-font-specification:OpenSans-Extrabold;writing-mode:lr-tb;fill:#e2466b;fill-opacity:1;fill-rule:nonzero;stroke:none"
       id="text21261"
       x="288.80573"
       y="-397.03012"><tspan
         sodipodi:role="line"
         id="tspan21263"
         x="288.80573"
         y="-397.03012">TransRev</tspan></text>
<text
       transform="scale(1.0000043,-0.9999957)"
       style="font-variant:normal;font-weight:300;font-stretch:normal;font-size:23.01549911px;font-family:'Open Sans Light';-inkscape-font-specification:OpenSans-Light;writing-mode:lr-tb;fill:#525557;fill-opacity:1;fill-rule:nonzero;stroke:none"
       id="text21265"
       x="230.77252"
       y="-366.61142"><tspan
         sodipodi:role="line"
         id="tspan21267"
         x="230.77252"
         y="-366.61142">Connecting people and transport</tspan></text>
</g></svg>